<svg xmlns="http://www.w3.org/2000/svg" width="648" height="648" viewBox="2036 2634 648 648" fill="none">
<defs>
<linearGradient id="paint214_linear_2271_1682" x1="2238.48" y1="2828.38" x2="2238.48" y2="3091.24" gradientUnits="userSpaceOnUse">
<stop stop-color="#3346F2"></stop>
<stop offset="0.47" stop-color="#DC8AE0"></stop>
<stop offset="0.9999" stop-color="#2CEDFC"></stop>
</linearGradient>
<linearGradient id="paint215_linear_2271_1682" x1="2240.1" y1="2838.59" x2="2240.1" y2="3084.24" gradientUnits="userSpaceOnUse">
<stop stop-color="#3346F2"></stop>
<stop offset="0.47" stop-color="#DC8AE0"></stop>
<stop offset="0.9999" stop-color="#2CEDFC"></stop>
</linearGradient>
<linearGradient id="paint216_linear_2271_1682" x1="2241.72" y1="2848.79" x2="2241.72" y2="3077.24" gradientUnits="userSpaceOnUse">
<stop stop-color="#3346F2"></stop>
<stop offset="0.47" stop-color="#DC8AE0"></stop>
<stop offset="0.9999" stop-color="#2CEDFC"></stop>
</linearGradient>
<linearGradient id="paint217_linear_2271_1682" x1="2243.34" y1="2859" x2="2243.34" y2="3070.25" gradientUnits="userSpaceOnUse">
<stop stop-color="#3346F2"></stop>
<stop offset="0.47" stop-color="#DC8AE0"></stop>
<stop offset="0.9999" stop-color="#2CEDFC"></stop>
</linearGradient>
<linearGradient id="paint218_linear_2271_1682" x1="2244.96" y1="2869.21" x2="2244.96" y2="3063.25" gradientUnits="userSpaceOnUse">
<stop stop-color="#3346F2"></stop>
<stop offset="0.47" stop-color="#DC8AE0"></stop>
<stop offset="0.9999" stop-color="#2CEDFC"></stop>
</linearGradient>
<linearGradient id="paint219_linear_2271_1682" x1="2246.58" y1="2879.42" x2="2246.58" y2="3056.25" gradientUnits="userSpaceOnUse">
<stop stop-color="#3346F2"></stop>
<stop offset="0.47" stop-color="#DC8AE0"></stop>
<stop offset="0.9999" stop-color="#2CEDFC"></stop>
</linearGradient>
<linearGradient id="paint220_linear_2271_1682" x1="2248.2" y1="2889.63" x2="2248.2" y2="3049.25" gradientUnits="userSpaceOnUse">
<stop stop-color="#3346F2"></stop>
<stop offset="0.47" stop-color="#DC8AE0"></stop>
<stop offset="0.9999" stop-color="#2CEDFC"></stop>
</linearGradient>
</defs>
<path opacity="0.65" d="M2360 2642.05C2185.51 2642.05 2044.05 2783.51 2044.05 2958C2044.05 3132.49 2185.51 3273.95 2360 3273.95C2534.49 3273.95 2675.95 3132.49 2675.95 2958C2675.95 2783.51 2534.49 2642.05 2360 2642.05Z" stroke="white" stroke-linecap="round" stroke-linejoin="round"></path>
<path opacity="0.24" d="M2360 2723.06C2230.25 2723.06 2125.06 2828.25 2125.06 2958C2125.06 3087.75 2230.25 3192.94 2360 3192.94C2489.75 3192.94 2594.94 3087.75 2594.94 2958C2594.94 2828.25 2489.75 2723.06 2360 2723.06Z" stroke="white" stroke-linecap="round" stroke-linejoin="round"></path>
<path opacity="0.18" d="M2360 2804.08C2274.99 2804.08 2206.08 2872.99 2206.08 2958C2206.08 3043.01 2274.99 3111.92 2360 3111.92C2445.01 3111.92 2513.92 3043.01 2513.92 2958C2513.92 2872.99 2445.01 2804.08 2360 2804.08Z" stroke="white" stroke-linecap="round" stroke-linejoin="round"></path>
<path opacity="0.7" d="M2505.82 2828.38L2366.81 3095.72L2238.48 2828.38L2505.82 2828.38Z" stroke="url(#paint214_linear_2271_1682)" stroke-linecap="round" stroke-linejoin="round"></path>
<path opacity="0.63" d="M2476.66 2838.59L2353.65 3088.43L2240.1 2838.59L2476.66 2838.59Z" stroke="url(#paint215_linear_2271_1682)" stroke-linecap="round" stroke-linejoin="round"></path>
<path opacity="0.56" d="M2447.49 2848.79L2340.49 3081.14L2241.72 2848.79L2447.49 2848.79Z" stroke="url(#paint216_linear_2271_1682)" stroke-linecap="round" stroke-linejoin="round"></path>
<path opacity="0.49" d="M2418.33 2859L2327.34 3073.85L2243.34 2859L2418.33 2859Z" stroke="url(#paint217_linear_2271_1682)" stroke-linecap="round" stroke-linejoin="round"></path>
<path opacity="0.42" d="M2389.16 2869.21L2314.18 3066.56L2244.96 2869.21L2389.16 2869.21Z" stroke="url(#paint218_linear_2271_1682)" stroke-linecap="round" stroke-linejoin="round"></path>
<path opacity="0.35" d="M2360 2879.42L2301.02 3059.27L2246.58 2879.42L2360 2879.42Z" stroke="url(#paint219_linear_2271_1682)" stroke-linecap="round" stroke-linejoin="round"></path>
<path opacity="0.28" d="M2330.84 2889.63L2287.87 3051.97L2248.2 2889.63L2330.84 2889.63Z" stroke="url(#paint220_linear_2271_1682)" stroke-linecap="round" stroke-linejoin="round"></path>
<path opacity="0.95" d="M2360 3269.9C2357.76 3269.9 2355.95 3271.71 2355.95 3273.95C2355.95 3276.19 2357.76 3278 2360 3278C2362.24 3278 2364.05 3276.19 2364.05 3273.95C2364.05 3271.71 2362.24 3269.9 2360 3269.9Z" fill="white"></path>
<path opacity="0.95" d="M2044.05 2953.95C2041.81 2953.95 2040 2955.76 2040 2958C2040 2960.24 2041.81 2962.05 2044.05 2962.05C2046.29 2962.05 2048.1 2960.24 2048.1 2958C2048.1 2955.76 2046.29 2953.95 2044.05 2953.95Z" fill="white"></path>
<path opacity="0.95" d="M2360 2638C2357.76 2638 2355.95 2639.81 2355.95 2642.05C2355.95 2644.29 2357.76 2646.1 2360 2646.1C2362.24 2646.1 2364.05 2644.29 2364.05 2642.05C2364.05 2639.81 2362.24 2638 2360 2638Z" fill="white"></path>
<path opacity="0.95" d="M2675.95 2953.95C2673.71 2953.95 2671.9 2955.76 2671.9 2958C2671.9 2960.24 2673.71 2962.05 2675.95 2962.05C2678.19 2962.05 2680 2960.24 2680 2958C2680 2955.76 2678.19 2953.95 2675.95 2953.95Z" fill="white"></path>
</svg>
