<svg xmlns="http://www.w3.org/2000/svg" width="608" height="648" viewBox="2056 414 608 648" fill="none">
<defs>
<linearGradient id="paint44_linear_2271_1682" x1="2193.33" y1="651.333" x2="2193.33" y2="507.126" gradientUnits="userSpaceOnUse">
<stop stop-color="#3346F2"></stop>
<stop offset="0.47" stop-color="#DC8AE0"></stop>
<stop offset="0.9999" stop-color="#2CEDFC"></stop>
</linearGradient>
<linearGradient id="paint45_linear_2271_1682" x1="2273.33" y1="505.667" x2="2273.33" y2="504.683" gradientUnits="userSpaceOnUse">
<stop stop-color="#3346F2"></stop>
<stop offset="0.47" stop-color="#DC8AE0"></stop>
<stop offset="0.9999" stop-color="#2CEDFC"></stop>
</linearGradient>
<linearGradient id="paint46_linear_2271_1682" x1="2353.33" y1="651.333" x2="2353.33" y2="507.126" gradientUnits="userSpaceOnUse">
<stop stop-color="#3346F2"></stop>
<stop offset="0.47" stop-color="#DC8AE0"></stop>
<stop offset="0.9999" stop-color="#2CEDFC"></stop>
</linearGradient>
<linearGradient id="paint47_linear_2271_1682" x1="2273.33" y1="651.333" x2="2273.33" y2="507.126" gradientUnits="userSpaceOnUse">
<stop stop-color="#3346F2"></stop>
<stop offset="0.47" stop-color="#DC8AE0"></stop>
<stop offset="0.9999" stop-color="#2CEDFC"></stop>
</linearGradient>
<linearGradient id="paint48_linear_2271_1682" x1="2433.33" y1="505.667" x2="2433.33" y2="504.683" gradientUnits="userSpaceOnUse">
<stop stop-color="#3346F2"></stop>
<stop offset="0.47" stop-color="#DC8AE0"></stop>
<stop offset="0.9999" stop-color="#2CEDFC"></stop>
</linearGradient>
<linearGradient id="paint49_linear_2271_1682" x1="2513.33" y1="651.333" x2="2513.33" y2="507.126" gradientUnits="userSpaceOnUse">
<stop stop-color="#3346F2"></stop>
<stop offset="0.47" stop-color="#DC8AE0"></stop>
<stop offset="0.9999" stop-color="#2CEDFC"></stop>
</linearGradient>
<linearGradient id="paint50_linear_2271_1682" x1="2433.33" y1="651.333" x2="2433.33" y2="507.126" gradientUnits="userSpaceOnUse">
<stop stop-color="#3346F2"></stop>
<stop offset="0.47" stop-color="#DC8AE0"></stop>
<stop offset="0.9999" stop-color="#2CEDFC"></stop>
</linearGradient>
<linearGradient id="paint51_linear_2271_1682" x1="2593.33" y1="505.667" x2="2593.33" y2="504.683" gradientUnits="userSpaceOnUse">
<stop stop-color="#3346F2"></stop>
<stop offset="0.47" stop-color="#DC8AE0"></stop>
<stop offset="0.9999" stop-color="#2CEDFC"></stop>
</linearGradient>
<linearGradient id="paint52_linear_2271_1682" x1="2593.33" y1="651.333" x2="2593.33" y2="507.126" gradientUnits="userSpaceOnUse">
<stop stop-color="#3346F2"></stop>
<stop offset="0.47" stop-color="#DC8AE0"></stop>
<stop offset="0.9999" stop-color="#2CEDFC"></stop>
</linearGradient>
<linearGradient id="paint53_linear_2271_1682" x1="2273.33" y1="798" x2="2273.33" y2="653.793" gradientUnits="userSpaceOnUse">
<stop stop-color="#3346F2"></stop>
<stop offset="0.47" stop-color="#DC8AE0"></stop>
<stop offset="0.9999" stop-color="#2CEDFC"></stop>
</linearGradient>
<linearGradient id="paint54_linear_2271_1682" x1="2193.33" y1="798" x2="2193.33" y2="653.793" gradientUnits="userSpaceOnUse">
<stop stop-color="#3346F2"></stop>
<stop offset="0.47" stop-color="#DC8AE0"></stop>
<stop offset="0.9999" stop-color="#2CEDFC"></stop>
</linearGradient>
<linearGradient id="paint55_linear_2271_1682" x1="2353.33" y1="652.333" x2="2353.33" y2="651.35" gradientUnits="userSpaceOnUse">
<stop stop-color="#3346F2"></stop>
<stop offset="0.47" stop-color="#DC8AE0"></stop>
<stop offset="0.9999" stop-color="#2CEDFC"></stop>
</linearGradient>
<linearGradient id="paint56_linear_2271_1682" x1="2433.33" y1="798" x2="2433.33" y2="653.793" gradientUnits="userSpaceOnUse">
<stop stop-color="#3346F2"></stop>
<stop offset="0.47" stop-color="#DC8AE0"></stop>
<stop offset="0.9999" stop-color="#2CEDFC"></stop>
</linearGradient>
<linearGradient id="paint57_linear_2271_1682" x1="2353.33" y1="798" x2="2353.33" y2="653.793" gradientUnits="userSpaceOnUse">
<stop stop-color="#3346F2"></stop>
<stop offset="0.47" stop-color="#DC8AE0"></stop>
<stop offset="0.9999" stop-color="#2CEDFC"></stop>
</linearGradient>
<linearGradient id="paint58_linear_2271_1682" x1="2513.33" y1="652.333" x2="2513.33" y2="651.35" gradientUnits="userSpaceOnUse">
<stop stop-color="#3346F2"></stop>
<stop offset="0.47" stop-color="#DC8AE0"></stop>
<stop offset="0.9999" stop-color="#2CEDFC"></stop>
</linearGradient>
<linearGradient id="paint59_linear_2271_1682" x1="2593.33" y1="798" x2="2593.33" y2="653.793" gradientUnits="userSpaceOnUse">
<stop stop-color="#3346F2"></stop>
<stop offset="0.47" stop-color="#DC8AE0"></stop>
<stop offset="0.9999" stop-color="#2CEDFC"></stop>
</linearGradient>
<linearGradient id="paint60_linear_2271_1682" x1="2513.33" y1="798" x2="2513.33" y2="653.793" gradientUnits="userSpaceOnUse">
<stop stop-color="#3346F2"></stop>
<stop offset="0.47" stop-color="#DC8AE0"></stop>
<stop offset="0.9999" stop-color="#2CEDFC"></stop>
</linearGradient>
<linearGradient id="paint61_linear_2271_1682" x1="2193.33" y1="944.667" x2="2193.33" y2="800.459" gradientUnits="userSpaceOnUse">
<stop stop-color="#3346F2"></stop>
<stop offset="0.47" stop-color="#DC8AE0"></stop>
<stop offset="0.9999" stop-color="#2CEDFC"></stop>
</linearGradient>
<linearGradient id="paint62_linear_2271_1682" x1="2273.33" y1="799" x2="2273.33" y2="798.017" gradientUnits="userSpaceOnUse">
<stop stop-color="#3346F2"></stop>
<stop offset="0.47" stop-color="#DC8AE0"></stop>
<stop offset="0.9999" stop-color="#2CEDFC"></stop>
</linearGradient>
<linearGradient id="paint63_linear_2271_1682" x1="2353.33" y1="944.667" x2="2353.33" y2="800.459" gradientUnits="userSpaceOnUse">
<stop stop-color="#3346F2"></stop>
<stop offset="0.47" stop-color="#DC8AE0"></stop>
<stop offset="0.9999" stop-color="#2CEDFC"></stop>
</linearGradient>
<linearGradient id="paint64_linear_2271_1682" x1="2273.33" y1="944.667" x2="2273.33" y2="800.459" gradientUnits="userSpaceOnUse">
<stop stop-color="#3346F2"></stop>
<stop offset="0.47" stop-color="#DC8AE0"></stop>
<stop offset="0.9999" stop-color="#2CEDFC"></stop>
</linearGradient>
<linearGradient id="paint65_linear_2271_1682" x1="2433.33" y1="799" x2="2433.33" y2="798.017" gradientUnits="userSpaceOnUse">
<stop stop-color="#3346F2"></stop>
<stop offset="0.47" stop-color="#DC8AE0"></stop>
<stop offset="0.9999" stop-color="#2CEDFC"></stop>
</linearGradient>
<linearGradient id="paint66_linear_2271_1682" x1="2513.33" y1="944.667" x2="2513.33" y2="800.459" gradientUnits="userSpaceOnUse">
<stop stop-color="#3346F2"></stop>
<stop offset="0.47" stop-color="#DC8AE0"></stop>
<stop offset="0.9999" stop-color="#2CEDFC"></stop>
</linearGradient>
<linearGradient id="paint67_linear_2271_1682" x1="2433.33" y1="944.667" x2="2433.33" y2="800.459" gradientUnits="userSpaceOnUse">
<stop stop-color="#3346F2"></stop>
<stop offset="0.47" stop-color="#DC8AE0"></stop>
<stop offset="0.9999" stop-color="#2CEDFC"></stop>
</linearGradient>
<linearGradient id="paint68_linear_2271_1682" x1="2593.33" y1="799" x2="2593.33" y2="798.017" gradientUnits="userSpaceOnUse">
<stop stop-color="#3346F2"></stop>
<stop offset="0.47" stop-color="#DC8AE0"></stop>
<stop offset="0.9999" stop-color="#2CEDFC"></stop>
</linearGradient>
<linearGradient id="paint69_linear_2271_1682" x1="2593.33" y1="944.667" x2="2593.33" y2="800.459" gradientUnits="userSpaceOnUse">
<stop stop-color="#3346F2"></stop>
<stop offset="0.47" stop-color="#DC8AE0"></stop>
<stop offset="0.9999" stop-color="#2CEDFC"></stop>
</linearGradient>
<linearGradient id="paint70_linear_2271_1682" x1="2353.33" y1="945.667" x2="2353.33" y2="944.683" gradientUnits="userSpaceOnUse">
<stop stop-color="#3346F2"></stop>
<stop offset="0.47" stop-color="#DC8AE0"></stop>
<stop offset="0.9999" stop-color="#2CEDFC"></stop>
</linearGradient>
<linearGradient id="paint71_linear_2271_1682" x1="2513.33" y1="945.667" x2="2513.33" y2="944.683" gradientUnits="userSpaceOnUse">
<stop stop-color="#3346F2"></stop>
<stop offset="0.47" stop-color="#DC8AE0"></stop>
<stop offset="0.9999" stop-color="#2CEDFC"></stop>
</linearGradient>
</defs>
<path opacity="0.16" d="M2060 418V1058" stroke="white" stroke-linecap="round" stroke-linejoin="round" stroke-dasharray="3 10"></path>
<path opacity="0.16" d="M2180 418V1058" stroke="white" stroke-linecap="round" stroke-linejoin="round" stroke-dasharray="3 10"></path>
<path opacity="0.16" d="M2300 418V1058" stroke="white" stroke-linecap="round" stroke-linejoin="round" stroke-dasharray="3 10"></path>
<path opacity="0.16" d="M2420 418V1058" stroke="white" stroke-linecap="round" stroke-linejoin="round" stroke-dasharray="3 10"></path>
<path opacity="0.16" d="M2540 418V1058" stroke="white" stroke-linecap="round" stroke-linejoin="round" stroke-dasharray="3 10"></path>
<path opacity="0.16" d="M2660 418V1058" stroke="white" stroke-linecap="round" stroke-linejoin="round" stroke-dasharray="3 10"></path>
<path opacity="0.45" d="M2113.33 504.667L2193.33 651.333" stroke="url(#paint44_linear_2271_1682)" stroke-linecap="round" stroke-linejoin="round"></path>
<path opacity="0.45" d="M2113.33 504.667H2273.33" stroke="url(#paint45_linear_2271_1682)" stroke-linecap="round" stroke-linejoin="round"></path>
<path opacity="0.45" d="M2273.33 504.667L2353.33 651.333" stroke="url(#paint46_linear_2271_1682)" stroke-linecap="round" stroke-linejoin="round"></path>
<path opacity="0.45" d="M2273.33 504.667L2193.33 651.333" stroke="url(#paint47_linear_2271_1682)" stroke-linecap="round" stroke-linejoin="round"></path>
<path opacity="0.45" d="M2273.33 504.667H2433.33" stroke="url(#paint48_linear_2271_1682)" stroke-linecap="round" stroke-linejoin="round"></path>
<path opacity="0.45" d="M2433.33 504.667L2513.33 651.333" stroke="url(#paint49_linear_2271_1682)" stroke-linecap="round" stroke-linejoin="round"></path>
<path opacity="0.45" d="M2433.33 504.667L2353.33 651.333" stroke="url(#paint50_linear_2271_1682)" stroke-linecap="round" stroke-linejoin="round"></path>
<path opacity="0.45" d="M2433.33 504.667H2593.33" stroke="url(#paint51_linear_2271_1682)" stroke-linecap="round" stroke-linejoin="round"></path>
<path opacity="0.45" d="M2593.33 504.667L2513.33 651.333" stroke="url(#paint52_linear_2271_1682)" stroke-linecap="round" stroke-linejoin="round"></path>
<path opacity="0.45" d="M2193.33 651.333L2273.33 798" stroke="url(#paint53_linear_2271_1682)" stroke-linecap="round" stroke-linejoin="round"></path>
<path opacity="0.45" d="M2193.33 651.333L2113.33 798" stroke="url(#paint54_linear_2271_1682)" stroke-linecap="round" stroke-linejoin="round"></path>
<path opacity="0.45" d="M2193.33 651.333H2353.33" stroke="url(#paint55_linear_2271_1682)" stroke-linecap="round" stroke-linejoin="round"></path>
<path opacity="0.45" d="M2353.33 651.333L2433.33 798" stroke="url(#paint56_linear_2271_1682)" stroke-linecap="round" stroke-linejoin="round"></path>
<path opacity="0.45" d="M2353.33 651.333L2273.33 798" stroke="url(#paint57_linear_2271_1682)" stroke-linecap="round" stroke-linejoin="round"></path>
<path opacity="0.45" d="M2353.33 651.333H2513.33" stroke="url(#paint58_linear_2271_1682)" stroke-linecap="round" stroke-linejoin="round"></path>
<path opacity="0.45" d="M2513.33 651.333L2593.33 798" stroke="url(#paint59_linear_2271_1682)" stroke-linecap="round" stroke-linejoin="round"></path>
<path opacity="0.45" d="M2513.33 651.333L2433.33 798" stroke="url(#paint60_linear_2271_1682)" stroke-linecap="round" stroke-linejoin="round"></path>
<path opacity="0.45" d="M2113.33 798L2193.33 944.667" stroke="url(#paint61_linear_2271_1682)" stroke-linecap="round" stroke-linejoin="round"></path>
<path opacity="0.45" d="M2113.33 798H2273.33" stroke="url(#paint62_linear_2271_1682)" stroke-linecap="round" stroke-linejoin="round"></path>
<path opacity="0.45" d="M2273.33 798L2353.33 944.667" stroke="url(#paint63_linear_2271_1682)" stroke-linecap="round" stroke-linejoin="round"></path>
<path opacity="0.45" d="M2273.33 798L2193.33 944.667" stroke="url(#paint64_linear_2271_1682)" stroke-linecap="round" stroke-linejoin="round"></path>
<path opacity="0.45" d="M2273.33 798H2433.33" stroke="url(#paint65_linear_2271_1682)" stroke-linecap="round" stroke-linejoin="round"></path>
<path opacity="0.45" d="M2433.33 798L2513.33 944.667" stroke="url(#paint66_linear_2271_1682)" stroke-linecap="round" stroke-linejoin="round"></path>
<path opacity="0.45" d="M2433.33 798L2353.33 944.667" stroke="url(#paint67_linear_2271_1682)" stroke-linecap="round" stroke-linejoin="round"></path>
<path opacity="0.45" d="M2433.33 798H2593.33" stroke="url(#paint68_linear_2271_1682)" stroke-linecap="round" stroke-linejoin="round"></path>
<path opacity="0.45" d="M2593.33 798L2513.33 944.667" stroke="url(#paint69_linear_2271_1682)" stroke-linecap="round" stroke-linejoin="round"></path>
<path opacity="0.45" d="M2193.33 944.667H2353.33" stroke="url(#paint70_linear_2271_1682)" stroke-linecap="round" stroke-linejoin="round"></path>
<path opacity="0.45" d="M2353.33 944.667H2513.33" stroke="url(#paint71_linear_2271_1682)" stroke-linecap="round" stroke-linejoin="round"></path>
<path opacity="0.85" d="M2113.33 507.333C2114.81 507.333 2116 506.139 2116 504.667C2116 503.194 2114.81 502 2113.33 502C2111.86 502 2110.67 503.194 2110.67 504.667C2110.67 506.139 2111.86 507.333 2113.33 507.333Z" fill="white"></path>
<path opacity="0.85" d="M2273.33 507.333C2274.81 507.333 2276 506.139 2276 504.667C2276 503.194 2274.81 502 2273.33 502C2271.86 502 2270.67 503.194 2270.67 504.667C2270.67 506.139 2271.86 507.333 2273.33 507.333Z" fill="white"></path>
<path opacity="0.85" d="M2433.33 507.333C2434.81 507.333 2436 506.139 2436 504.667C2436 503.194 2434.81 502 2433.33 502C2431.86 502 2430.67 503.194 2430.67 504.667C2430.67 506.139 2431.86 507.333 2433.33 507.333Z" fill="white"></path>
<path opacity="0.85" d="M2593.33 507.333C2594.81 507.333 2596 506.139 2596 504.667C2596 503.194 2594.81 502 2593.33 502C2591.86 502 2590.67 503.194 2590.67 504.667C2590.67 506.139 2591.86 507.333 2593.33 507.333Z" fill="white"></path>
<path opacity="0.85" d="M2193.33 654C2194.81 654 2196 652.806 2196 651.333C2196 649.861 2194.81 648.667 2193.33 648.667C2191.86 648.667 2190.67 649.861 2190.67 651.333C2190.67 652.806 2191.86 654 2193.33 654Z" fill="white"></path>
<path opacity="0.85" d="M2353.33 654C2354.81 654 2356 652.806 2356 651.333C2356 649.861 2354.81 648.667 2353.33 648.667C2351.86 648.667 2350.67 649.861 2350.67 651.333C2350.67 652.806 2351.86 654 2353.33 654Z" fill="white"></path>
<path opacity="0.85" d="M2513.33 654C2514.81 654 2516 652.806 2516 651.333C2516 649.861 2514.81 648.667 2513.33 648.667C2511.86 648.667 2510.67 649.861 2510.67 651.333C2510.67 652.806 2511.86 654 2513.33 654Z" fill="white"></path>
<path opacity="0.85" d="M2113.33 800.667C2114.81 800.667 2116 799.473 2116 798C2116 796.527 2114.81 795.333 2113.33 795.333C2111.86 795.333 2110.67 796.527 2110.67 798C2110.67 799.473 2111.86 800.667 2113.33 800.667Z" fill="white"></path>
<path opacity="0.85" d="M2273.33 800.667C2274.81 800.667 2276 799.473 2276 798C2276 796.527 2274.81 795.333 2273.33 795.333C2271.86 795.333 2270.67 796.527 2270.67 798C2270.67 799.473 2271.86 800.667 2273.33 800.667Z" fill="white"></path>
<path opacity="0.85" d="M2433.33 800.667C2434.81 800.667 2436 799.473 2436 798C2436 796.527 2434.81 795.333 2433.33 795.333C2431.86 795.333 2430.67 796.527 2430.67 798C2430.67 799.473 2431.86 800.667 2433.33 800.667Z" fill="white"></path>
<path opacity="0.85" d="M2593.33 800.667C2594.81 800.667 2596 799.473 2596 798C2596 796.527 2594.81 795.333 2593.33 795.333C2591.86 795.333 2590.67 796.527 2590.67 798C2590.67 799.473 2591.86 800.667 2593.33 800.667Z" fill="white"></path>
<path opacity="0.85" d="M2193.33 947.333C2194.81 947.333 2196 946.139 2196 944.667C2196 943.194 2194.81 942 2193.33 942C2191.86 942 2190.67 943.194 2190.67 944.667C2190.67 946.139 2191.86 947.333 2193.33 947.333Z" fill="white"></path>
<path opacity="0.85" d="M2353.33 947.333C2354.81 947.333 2356 946.139 2356 944.667C2356 943.194 2354.81 942 2353.33 942C2351.86 942 2350.67 943.194 2350.67 944.667C2350.67 946.139 2351.86 947.333 2353.33 947.333Z" fill="white"></path>
<path opacity="0.85" d="M2513.33 947.333C2514.81 947.333 2516 946.139 2516 944.667C2516 943.194 2514.81 942 2513.33 942C2511.86 942 2510.67 943.194 2510.67 944.667C2510.67 946.139 2511.86 947.333 2513.33 947.333Z" fill="white"></path>
</svg>
