<svg xmlns="http://www.w3.org/2000/svg" width="722.42" height="648" viewBox="1998.79 1524 722.42 648" fill="none">
<defs>
<linearGradient id="paint190_linear_2271_1682" x1="2285.58" y1="2168" x2="2285.58" y2="1538.73" gradientUnits="userSpaceOnUse">
<stop stop-color="#3346F2"></stop>
<stop offset="0.47" stop-color="#DC8AE0"></stop>
<stop offset="0.9999" stop-color="#2CEDFC"></stop>
</linearGradient>
<linearGradient id="paint191_linear_2271_1682" x1="2337.67" y1="2136.74" x2="2337.67" y2="1568.94" gradientUnits="userSpaceOnUse">
<stop stop-color="#3346F2"></stop>
<stop offset="0.47" stop-color="#DC8AE0"></stop>
<stop offset="0.9999" stop-color="#2CEDFC"></stop>
</linearGradient>
<linearGradient id="paint192_linear_2271_1682" x1="2389.77" y1="2105.49" x2="2389.77" y2="1599.15" gradientUnits="userSpaceOnUse">
<stop stop-color="#3346F2"></stop>
<stop offset="0.47" stop-color="#DC8AE0"></stop>
<stop offset="0.9999" stop-color="#2CEDFC"></stop>
</linearGradient>
<linearGradient id="paint193_linear_2271_1682" x1="2441.86" y1="2074.23" x2="2441.86" y2="1629.35" gradientUnits="userSpaceOnUse">
<stop stop-color="#3346F2"></stop>
<stop offset="0.47" stop-color="#DC8AE0"></stop>
<stop offset="0.9999" stop-color="#2CEDFC"></stop>
</linearGradient>
<linearGradient id="paint194_linear_2271_1682" x1="2493.95" y1="2042.98" x2="2493.95" y2="1659.56" gradientUnits="userSpaceOnUse">
<stop stop-color="#3346F2"></stop>
<stop offset="0.47" stop-color="#DC8AE0"></stop>
<stop offset="0.9999" stop-color="#2CEDFC"></stop>
</linearGradient>
<linearGradient id="paint195_linear_2271_1682" x1="2546.05" y1="2011.72" x2="2546.05" y2="1689.77" gradientUnits="userSpaceOnUse">
<stop stop-color="#3346F2"></stop>
<stop offset="0.47" stop-color="#DC8AE0"></stop>
<stop offset="0.9999" stop-color="#2CEDFC"></stop>
</linearGradient>
<linearGradient id="paint196_linear_2271_1682" x1="2598.14" y1="1980.47" x2="2598.14" y2="1719.98" gradientUnits="userSpaceOnUse">
<stop stop-color="#3346F2"></stop>
<stop offset="0.47" stop-color="#DC8AE0"></stop>
<stop offset="0.9999" stop-color="#2CEDFC"></stop>
</linearGradient>
<linearGradient id="paint197_linear_2271_1682" x1="2650.23" y1="1949.21" x2="2650.23" y2="1750.18" gradientUnits="userSpaceOnUse">
<stop stop-color="#3346F2"></stop>
<stop offset="0.47" stop-color="#DC8AE0"></stop>
<stop offset="0.9999" stop-color="#2CEDFC"></stop>
</linearGradient>
</defs>
<path opacity="0.16" d="M2002.79 1848H2717.21" stroke="white" stroke-linecap="round" stroke-linejoin="round" stroke-dasharray="3.35 11.16"></path>
<path opacity="0.78" d="M2084.65 1528L2285.58 1848L2084.65 2168V1528Z" stroke="url(#paint190_linear_2271_1682)" stroke-linecap="round" stroke-linejoin="round"></path>
<path opacity="0.85" d="M2285.58 1850.98C2287.23 1850.98 2288.56 1849.64 2288.56 1848C2288.56 1846.36 2287.23 1845.02 2285.58 1845.02C2283.94 1845.02 2282.6 1846.36 2282.6 1848C2282.6 1849.64 2283.94 1850.98 2285.58 1850.98Z" fill="white"></path>
<path opacity="0.71" d="M2147.91 1559.26L2337.67 1848L2147.91 2136.74V1559.26Z" stroke="url(#paint191_linear_2271_1682)" stroke-linecap="round" stroke-linejoin="round"></path>
<path opacity="0.85" d="M2337.67 1850.98C2339.32 1850.98 2340.65 1849.64 2340.65 1848C2340.65 1846.36 2339.32 1845.02 2337.67 1845.02C2336.03 1845.02 2334.7 1846.36 2334.7 1848C2334.7 1849.64 2336.03 1850.98 2337.67 1850.98Z" fill="white"></path>
<path opacity="0.64" d="M2211.16 1590.51L2389.77 1848L2211.16 2105.49V1590.51Z" stroke="url(#paint192_linear_2271_1682)" stroke-linecap="round" stroke-linejoin="round"></path>
<path opacity="0.85" d="M2389.77 1850.98C2391.41 1850.98 2392.74 1849.64 2392.74 1848C2392.74 1846.36 2391.41 1845.02 2389.77 1845.02C2388.12 1845.02 2386.79 1846.36 2386.79 1848C2386.79 1849.64 2388.12 1850.98 2389.77 1850.98Z" fill="white"></path>
<path opacity="0.57" d="M2274.42 1621.77L2441.86 1848L2274.42 2074.23V1621.77Z" stroke="url(#paint193_linear_2271_1682)" stroke-linecap="round" stroke-linejoin="round"></path>
<path opacity="0.85" d="M2441.86 1850.98C2443.5 1850.98 2444.84 1849.64 2444.84 1848C2444.84 1846.36 2443.5 1845.02 2441.86 1845.02C2440.22 1845.02 2438.88 1846.36 2438.88 1848C2438.88 1849.64 2440.22 1850.98 2441.86 1850.98Z" fill="white"></path>
<path opacity="0.5" d="M2337.67 1653.02L2493.95 1848L2337.67 2042.98V1653.02Z" stroke="url(#paint194_linear_2271_1682)" stroke-linecap="round" stroke-linejoin="round"></path>
<path opacity="0.85" d="M2493.95 1850.98C2495.6 1850.98 2496.93 1849.64 2496.93 1848C2496.93 1846.36 2495.6 1845.02 2493.95 1845.02C2492.31 1845.02 2490.98 1846.36 2490.98 1848C2490.98 1849.64 2492.31 1850.98 2493.95 1850.98Z" fill="white"></path>
<path opacity="0.43" d="M2400.93 1684.28L2546.05 1848L2400.93 2011.72V1684.28Z" stroke="url(#paint195_linear_2271_1682)" stroke-linecap="round" stroke-linejoin="round"></path>
<path opacity="0.85" d="M2546.05 1850.98C2547.69 1850.98 2549.02 1849.64 2549.02 1848C2549.02 1846.36 2547.69 1845.02 2546.05 1845.02C2544.4 1845.02 2543.07 1846.36 2543.07 1848C2543.07 1849.64 2544.4 1850.98 2546.05 1850.98Z" fill="white"></path>
<path opacity="0.36" d="M2464.19 1715.53L2598.14 1848L2464.19 1980.47V1715.53Z" stroke="url(#paint196_linear_2271_1682)" stroke-linecap="round" stroke-linejoin="round"></path>
<path opacity="0.85" d="M2598.14 1850.98C2599.78 1850.98 2601.12 1849.64 2601.12 1848C2601.12 1846.36 2599.78 1845.02 2598.14 1845.02C2596.5 1845.02 2595.16 1846.36 2595.16 1848C2595.16 1849.64 2596.5 1850.98 2598.14 1850.98Z" fill="white"></path>
<path opacity="0.29" d="M2527.44 1746.79L2650.23 1848L2527.44 1949.21V1746.79Z" stroke="url(#paint197_linear_2271_1682)" stroke-linecap="round" stroke-linejoin="round"></path>
<path opacity="0.85" d="M2650.23 1850.98C2651.88 1850.98 2653.21 1849.64 2653.21 1848C2653.21 1846.36 2651.88 1845.02 2650.23 1845.02C2648.59 1845.02 2647.26 1846.36 2647.26 1848C2647.26 1849.64 2648.59 1850.98 2650.23 1850.98Z" fill="white"></path>
</svg>
